<svg preserveAspectRatio="none" width="100%" height="100%" overflow="visible" style="display: block;" viewBox="0 0 1609.56 394.179" fill="none" xmlns="http://www.w3.org/2000/svg">
<g id="Title">
<path id="Vector" d="M1473.79 57.4845C1432.18 57.4845 1417.95 76.0985 1417.95 101.83C1417.95 130.298 1431.63 140.153 1472.15 155.482L1512.11 170.811C1587.66 199.28 1609.56 227.748 1609.56 284.138C1609.56 354.761 1569.6 394.179 1480.91 394.179C1398.78 394.179 1349.51 359.141 1340.21 276.473H1405.35C1412.47 318.628 1432.73 336.695 1480.91 336.695C1524.7 336.695 1542.22 320.818 1542.22 287.422C1542.22 256.764 1529.08 244.72 1483.1 227.201L1445.32 213.514C1376.34 188.33 1350.06 162.051 1350.06 104.02C1350.06 43.7977 1388.38 0 1473.79 0C1557.55 0 1599.71 43.7977 1602.44 117.706H1537.29C1534.01 77.7409 1517.04 57.4845 1473.79 57.4845Z" fill="var(--fill-0, #3F3F3F)"/>
<path id="Vector_2" d="M1146.05 394.179C1054.08 394.179 994.949 343.812 994.949 249.647V145.08C994.949 50.9148 1054.08 0 1146.05 0C1238.03 0 1297.15 50.9148 1297.15 144.532V249.647C1297.15 343.812 1238.03 394.179 1146.05 394.179ZM1146.05 57.4845C1089.11 57.4845 1062.29 92.5226 1062.29 147.27V248.004C1062.29 301.657 1089.11 336.695 1146.05 336.695C1202.99 336.695 1229.81 301.657 1229.81 247.457V146.722C1229.81 92.5226 1202.99 57.4845 1146.05 57.4845Z" fill="var(--fill-0, #3F3F3F)"/>
<path id="Vector_3" d="M702.672 388.704V5.47461H951.224V62.9591H768.916V162.051H921.113V219.536H768.916V331.22H951.224V388.704H702.672Z" fill="var(--fill-0, #3F3F3F)"/>
<path id="Vector_4" d="M554.379 388.704V217.893H394.517V388.704H328.273V5.47461H394.517V160.409H554.379V5.47461H620.623V388.704H554.379Z" fill="var(--fill-0, #3F3F3F)"/>
<path id="Vector_5" d="M285.78 62.9591H176.286V388.704H110.042V62.9591H0V5.47461H285.78V62.9591Z" fill="var(--fill-0, #3F3F3F)"/>
</g>
</svg>
